<svg width="21" height="21" viewBox="0 0 21 21" fill="none" xmlns="http://www.w3.org/2000/svg">
<path fill-rule="evenodd" clip-rule="evenodd" d="M20.5226 18.647L19.1646 20.008L15.1926 16.012C13.6496 17.253 11.6916 18 9.55762 18C4.58662 18 0.557617 13.971 0.557617 9C0.557617 4.029 4.58662 0 9.55762 0C14.5286 0 18.5576 4.029 18.5576 9C18.5576 11.143 17.8056 13.109 16.5546 14.655L20.5226 18.647ZM16.5576 9C16.5576 5.134 13.4236 2 9.55762 2C5.69162 2 2.55762 5.134 2.55762 9C2.55762 12.866 5.69162 16 9.55762 16C13.4236 16 16.5576 12.866 16.5576 9ZM10.5576 12.999H8.61962V10H5.55762V8.063H8.61962V5H10.5576V8.063H13.5576V10H10.5576V12.999Z" fill="#C6C6D2"/>
</svg>
